<svg xmlns="http://www.w3.org/2000/svg" viewBox="0 0 400 200" width="400" height="200" style="border-radius:8px;">
      <rect width="400" height="200" rx="8" fill="#F4F4F6"/>
      <text x="200.0" y="24" text-anchor="middle" font-family="sans-serif" font-size="14" font-weight="bold" fill="#6E1E2A">Claude Corps Fellowship</text>
      <circle cx="50" cy="68" r="8" fill="#FF4500" opacity="0.7"/><rect x="42" y="80" width="16" height="22" rx="4" fill="#6E1E2A" opacity="0.7"/><circle cx="92" cy="68" r="8" fill="#FF4500" opacity="0.7"/><rect x="84" y="80" width="16" height="22" rx="4" fill="#6E1E2A" opacity="0.7"/><circle cx="134" cy="68" r="8" fill="#FF4500" opacity="0.7"/><rect x="126" y="80" width="16" height="22" rx="4" fill="#6E1E2A" opacity="0.7"/><circle cx="176" cy="68" r="8" fill="#FF4500" opacity="0.7"/><rect x="168" y="80" width="16" height="22" rx="4" fill="#6E1E2A" opacity="0.7"/><circle cx="218" cy="68" r="8" fill="#FF4500" opacity="0.7"/><rect x="210" y="80" width="16" height="22" rx="4" fill="#6E1E2A" opacity="0.7"/><circle cx="260" cy="68" r="8" fill="#FF4500" opacity="0.7"/><rect x="252" y="80" width="16" height="22" rx="4" fill="#6E1E2A" opacity="0.7"/><circle cx="302" cy="68" r="8" fill="#FF4500" opacity="0.7"/><rect x="294" y="80" width="16" height="22" rx="4" fill="#6E1E2A" opacity="0.7"/><circle cx="344" cy="68" r="8" fill="#FF4500" opacity="0.7"/><rect x="336" y="80" width="16" height="22" rx="4" fill="#6E1E2A" opacity="0.7"/>
      <text x="200.0" y="120" text-anchor="middle" font-family="sans-serif" font-size="11" fill="#7A7F88">1000 fellows placed nationwide</text>
      <rect x="40" y="132" rx="6" ry="6" width="150" height="50" fill="white" stroke="#D5D7DC" stroke-width="1"/>
      <text x="115" y="152" text-anchor="middle" font-family="sans-serif" font-size="10" fill="#7A7F88">Investment</text>
      <text x="115" y="172" text-anchor="middle" font-family="sans-serif" font-size="18" font-weight="bold" fill="#FF4500">$150M</text>
      <rect x="210" y="132" rx="6" ry="6" width="150" height="50" fill="white" stroke="#D5D7DC" stroke-width="1"/>
      <text x="285" y="152" text-anchor="middle" font-family="sans-serif" font-size="10" fill="#7A7F88">Fellow Salary</text>
      <text x="285" y="172" text-anchor="middle" font-family="sans-serif" font-size="18" font-weight="bold" fill="#FF4500">$85K</text>
    </svg>