<svg xmlns="http://www.w3.org/2000/svg" viewBox="0 0 420 296" width="420" height="296" style="border-radius:8px;">
      <rect width="420" height="296" rx="8" fill="#1E1E2E"/>
      <rect width="420" height="36" rx="8" fill="#2D2D3D"/>
      <rect y="28" width="420" height="8" fill="#2D2D3D"/>
      <circle cx="20" cy="18.0" r="6" fill="#FF5F57"/>
      <circle cx="40" cy="18.0" r="6" fill="#FEBC2E"/>
      <circle cx="60" cy="18.0" r="6" fill="#28C840"/>
      <text x="210.0" y="22.0" text-anchor="middle" font-family="monospace" font-size="12" fill="#A9B7C6">hermes-4.3/config.py</text>
      <rect x="0" y="36" width="420" height="230" fill="#1E1E2E"/>
      <line x1="16" y1="52" x2="404" y2="52" stroke="#FF4500" stroke-width="2" stroke-opacity="0.5"/>
      <text x="16" y="66" font-family="monospace" font-size="12" fill="#C586C0">from hermes import Model</text><text x="16" y="84" font-family="monospace" font-size="12" fill="#A9B7C6"></text><text x="16" y="102" font-family="monospace" font-size="12" fill="#9CDCFE">model = Model(</text><text x="16" y="120" font-family="monospace" font-size="12" fill="#9CDCFE">  name=&quot;Hermes-4.3&quot;,</text><text x="16" y="138" font-family="monospace" font-size="12" fill="#9CDCFE">  context_length=512_000,</text><text x="16" y="156" font-family="monospace" font-size="12" fill="#9CDCFE">  training=&#x27;global_knowledge&#x27;,</text><text x="16" y="174" font-family="monospace" font-size="12" fill="#9CDCFE">  quantization=&#x27;Q4_K_M&#x27;,</text><text x="16" y="192" font-family="monospace" font-size="12" fill="#A9B7C6">)</text><text x="16" y="210" font-family="monospace" font-size="12" fill="#A9B7C6"></text><text x="16" y="228" font-family="monospace" font-size="12" fill="#6A9955"># Extended context + open weights</text><text x="16" y="246" font-family="monospace" font-size="12" fill="#A9B7C6">model.deploy()</text>
      <rect x="16" y="268" rx="4" ry="4" width="80" height="22" fill="#FF4500"/><text x="24" y="284" font-family="sans-serif" font-size="11" fill="white" font-weight="bold">512K ctx</text>
    </svg>